<svg width="186" height="187" viewBox="0 0 186 187" fill="none" xmlns="http://www.w3.org/2000/svg">
<path d="M184.605 104.423C184.601 118.941 180.293 133.133 172.225 145.203C164.157 157.273 152.692 166.681 139.279 172.237C125.866 177.793 111.107 179.248 96.8668 176.417C82.627 173.587 69.5459 166.599 59.2769 156.336L9.72387 106.783C6.9362 103.997 4.89898 100.55 3.80197 96.7651C2.70497 92.9797 2.58386 88.9782 3.44995 85.1334C4.31603 81.2886 6.14113 77.7256 8.75522 74.7761C11.3693 71.8267 14.6874 69.5869 18.4003 68.2653L14.4437 64.3084C10.5105 60.372 8.11146 55.1609 7.67838 49.6131C7.24531 44.0653 8.80662 38.5451 12.0813 34.0459C15.356 29.5468 20.129 26.3643 25.5414 25.071C30.9537 23.7778 36.6499 24.4589 41.6048 26.9916C42.7544 23.1102 44.8931 19.5943 47.8113 16.7887C50.7295 13.9832 54.3269 11.9844 58.2505 10.9884C62.1741 9.99245 66.2893 10.0335 70.1922 11.1075C74.0952 12.1815 77.652 14.2517 80.5137 17.1149L100.976 37.5775C102.302 33.8666 104.545 30.5513 107.497 27.9399C110.448 25.3286 114.012 23.5059 117.857 22.6413C121.701 21.7768 125.702 21.8985 129.487 22.9952C133.273 24.0919 136.719 26.1278 139.506 28.9138L163.102 52.5104C169.941 59.3116 175.363 67.4018 179.054 76.3126C182.745 85.2235 184.632 94.7781 184.605 104.423ZM153.664 61.9488L130.067 38.3525C129.138 37.4207 128.034 36.6812 126.819 36.1763C125.604 35.6715 124.301 35.4111 122.985 35.4101C121.67 35.4092 120.366 35.6676 119.15 36.1708C117.935 36.6739 116.83 37.4117 115.899 38.3422C114.969 39.2726 114.231 40.3774 113.728 41.5932C113.224 42.8091 112.966 44.1123 112.967 45.4281C112.968 46.744 113.228 48.0468 113.733 49.262C114.238 50.4772 114.977 51.581 115.909 52.5102L127.707 64.3088C127.865 64.4662 128.014 64.6314 128.155 64.8038C128.258 64.9292 128.349 65.0603 128.442 65.1911C128.475 65.2381 128.512 65.2824 128.544 65.3302C128.652 65.4921 128.749 65.6586 128.841 65.8272C128.853 65.8482 128.866 65.8678 128.878 65.8887C128.97 66.0628 129.053 66.2407 129.129 66.4206C129.137 66.44 129.148 66.4585 129.156 66.4781C129.227 66.6504 129.287 66.8258 129.344 67.0023C129.353 67.0333 129.366 67.0631 129.376 67.0941C129.425 67.2572 129.463 67.4226 129.5 67.5884C129.51 67.6358 129.525 67.6821 129.534 67.7299C129.565 67.8865 129.585 68.0445 129.605 68.2026C129.612 68.261 129.625 68.3184 129.63 68.3771C129.649 68.5682 129.656 68.76 129.659 68.9517C129.659 68.9774 129.662 69.0026 129.663 69.0282C129.662 69.0544 129.659 69.0802 129.659 69.1064C129.656 69.2978 129.649 69.4892 129.63 69.6798C129.625 69.7326 129.614 69.7841 129.608 69.8365C129.587 70.0009 129.566 70.1652 129.534 70.3279C129.526 70.3671 129.514 70.4049 129.506 70.4439C129.468 70.6187 129.427 70.7927 129.375 70.9646C129.369 70.9845 129.361 71.0034 129.354 71.0232C129.296 71.2112 129.23 71.3975 129.155 71.5807L129.145 71.6013C129.065 71.794 128.975 71.9836 128.876 72.17L128.867 72.1862C128.767 72.3705 128.66 72.5516 128.543 72.7279C128.523 72.7567 128.501 72.7832 128.481 72.8117C128.378 72.9617 128.271 73.1105 128.154 73.2535C128.013 73.4255 127.864 73.5903 127.708 73.7474C122.701 78.7539 119.888 85.5442 119.888 92.6247C119.888 99.7051 122.7 106.496 127.707 111.502C128.958 112.754 129.662 114.451 129.662 116.221C129.662 117.991 128.959 119.689 127.707 120.941C126.455 122.192 124.758 122.895 122.988 122.895C121.218 122.895 119.52 122.192 118.269 120.941C111.578 114.247 107.473 105.402 106.68 95.971C105.887 86.5403 108.459 77.1334 113.938 69.4172L106.471 61.9491L106.468 61.946L71.0758 26.5537C69.1983 24.6762 66.6519 23.6214 63.9967 23.6214C61.3415 23.6213 58.7951 24.6761 56.9175 26.5536C55.04 28.4311 53.9852 30.9775 53.9852 33.6327C53.9851 36.2879 55.0399 38.8343 56.9174 40.7119L87.5923 71.388C88.844 72.6397 89.5471 74.3373 89.5471 76.1074C89.5471 77.8775 88.844 79.5751 87.5923 80.8267C86.3407 82.0784 84.6431 82.7815 82.873 82.7815C81.1029 82.7815 79.4053 82.0784 78.1536 80.8267L47.4779 50.1508L47.4592 50.1314L38.04 40.7118C36.1621 38.8369 33.6165 37.7843 30.9628 37.7853C28.3091 37.7863 25.7643 38.8409 23.8878 40.7173C22.0113 42.5938 20.9565 45.1384 20.9554 47.7921C20.9542 50.4459 22.0066 52.9915 23.8815 54.8696L42.7553 73.7434L42.7588 73.747L68.7154 99.704C69.3878 100.37 69.9103 101.171 70.2478 102.055C70.5852 102.939 70.7299 103.885 70.672 104.83C70.6141 105.774 70.3551 106.695 69.9123 107.531C69.4694 108.367 68.853 109.099 68.1043 109.678C68.0426 109.726 67.9793 109.77 67.9165 109.816C67.757 109.932 67.5939 110.041 67.4271 110.141C67.3606 110.181 67.2952 110.221 67.2276 110.259C67.0193 110.375 66.8048 110.48 66.5852 110.573C66.5659 110.581 66.5472 110.592 66.5278 110.6C66.2873 110.697 66.0413 110.78 65.7911 110.849C65.7707 110.855 65.7509 110.864 65.7304 110.869C65.6879 110.881 65.6442 110.885 65.6015 110.895C65.4049 110.944 65.207 110.983 65.0079 111.014C64.9366 111.025 64.8658 111.036 64.7943 111.045C64.5538 111.074 64.3119 111.091 64.0696 111.094C64.0528 111.095 64.0361 111.097 64.0192 111.097C63.7586 111.097 63.4981 111.081 63.2393 111.05C63.1727 111.043 63.1076 111.031 63.0414 111.022C62.8431 110.993 62.6464 110.956 62.4513 110.91C62.381 110.893 62.3115 110.877 62.2415 110.859C61.9946 110.793 61.7517 110.713 61.514 110.619L61.4973 110.613C61.2512 110.513 61.0114 110.397 60.7791 110.267C60.7181 110.233 60.6584 110.196 60.5981 110.16C60.4206 110.055 60.2473 109.941 60.0783 109.818C60.0196 109.775 59.9604 109.733 59.9028 109.688C59.683 109.52 59.4739 109.337 59.2766 109.143L33.3202 83.186C31.4422 81.311 28.8966 80.2583 26.2428 80.2594C23.589 80.2605 21.0442 81.3152 19.1677 83.1918C17.2913 85.0684 16.2367 87.6132 16.2357 90.267C16.2348 92.9208 17.2876 95.4664 19.1627 97.3443L68.7156 146.897C79.9813 158.157 95.2583 164.482 111.187 164.48C127.115 164.478 142.391 158.15 153.654 146.887C164.917 135.624 171.245 120.348 171.247 104.42C171.249 88.4915 164.924 73.2146 153.664 61.9488Z" fill="#181514"/>
<path fill-rule="evenodd" clip-rule="evenodd" d="M14.0286 140C17.9103 140 21.0571 143.147 21.0571 147.029C21.0571 158.027 29.9731 166.943 40.9714 166.943C44.8532 166.943 48 170.09 48 173.971C48 177.853 44.8532 181 40.9714 181C22.2095 181 7 165.79 7 147.029C7 143.147 10.1468 140 14.0286 140Z" fill="#181514"/>
<path fill-rule="evenodd" clip-rule="evenodd" d="M177.118 44C173.317 44 170.235 40.93 170.235 37.1429C170.235 26.1223 161.733 17.7143 151.882 17.7143C148.081 17.7143 145 14.6442 145 10.8571C145 7.07005 148.081 4 151.882 4C169.906 4 184 19.129 184 37.1429C184 40.93 180.919 44 177.118 44Z" fill="#181514"/>
</svg>
