<svg width="500" height="500" viewBox="0 0 500 500" fill="none" xmlns="http://www.w3.org/2000/svg">
<rect width="500" height="500" fill="#181514"/>
<path fill-rule="evenodd" clip-rule="evenodd" d="M374.231 175.732C368.318 175.732 363.525 171.076 363.525 165.332C363.525 148.616 350.299 135.864 334.974 135.864C329.061 135.864 324.268 131.207 324.268 125.463C324.268 119.719 329.061 115.063 334.974 115.063C363.012 115.063 384.937 138.01 384.937 165.332C384.937 171.076 380.144 175.732 374.231 175.732Z" fill="#FFA217"/>
<path fill-rule="evenodd" clip-rule="evenodd" d="M123.73 322.176C129.672 322.176 134.489 326.993 134.489 332.935C134.489 349.771 148.137 363.419 164.973 363.419C170.915 363.419 175.732 368.236 175.732 374.178C175.732 380.12 170.915 384.937 164.973 384.937C136.253 384.937 112.971 361.655 112.971 332.935C112.971 326.993 117.788 322.176 123.73 322.176Z" fill="#FFA217"/>
<path d="M384.826 268.657C384.82 290.804 378.248 312.451 365.941 330.863C353.635 349.275 336.146 363.625 315.686 372.1C295.225 380.575 272.711 382.794 250.99 378.477C229.269 374.16 209.315 363.5 193.651 347.844L118.062 272.257C113.81 268.007 110.703 262.75 109.029 256.976C107.356 251.202 107.171 245.098 108.492 239.233C109.813 233.368 112.597 227.933 116.585 223.434C120.572 218.935 125.634 215.518 131.298 213.502L125.262 207.466C119.262 201.462 115.603 193.513 114.942 185.05C114.282 176.588 116.663 168.167 121.659 161.304C126.654 154.441 133.934 149.587 142.19 147.614C150.446 145.641 159.135 146.68 166.694 150.544C168.447 144.623 171.71 139.26 176.161 134.98C180.612 130.701 186.1 127.652 192.085 126.132C198.07 124.613 204.347 124.676 210.301 126.314C216.254 127.952 221.68 131.11 226.045 135.478L257.258 166.691C259.281 161.031 262.703 155.974 267.205 151.99C271.707 148.007 277.143 145.226 283.008 143.908C288.873 142.589 294.976 142.775 300.749 144.447C306.523 146.12 311.78 149.226 316.032 153.476L352.025 189.47C362.457 199.844 370.728 212.185 376.358 225.778C381.988 239.37 384.867 253.945 384.826 268.657ZM337.628 203.867L301.634 167.873C300.217 166.452 298.533 165.324 296.679 164.554C294.826 163.784 292.839 163.387 290.831 163.385C288.824 163.384 286.836 163.778 284.982 164.545C283.127 165.313 281.442 166.438 280.022 167.858C278.603 169.277 277.477 170.962 276.71 172.817C275.942 174.672 275.548 176.659 275.549 178.667C275.55 180.674 275.947 182.661 276.717 184.515C277.487 186.368 278.615 188.052 280.037 189.47L298.034 207.467C298.274 207.707 298.502 207.959 298.717 208.222C298.873 208.413 299.013 208.613 299.154 208.813C299.205 208.885 299.262 208.952 299.31 209.025C299.475 209.272 299.623 209.526 299.764 209.783C299.781 209.815 299.802 209.845 299.82 209.877C299.961 210.143 300.086 210.414 300.203 210.688C300.215 210.718 300.231 210.746 300.244 210.776C300.352 211.039 300.444 211.307 300.53 211.576C300.545 211.623 300.565 211.668 300.579 211.716C300.654 211.965 300.713 212.217 300.768 212.47C300.785 212.542 300.807 212.613 300.821 212.686C300.868 212.924 300.899 213.166 300.929 213.407C300.94 213.496 300.959 213.583 300.967 213.673C300.996 213.964 301.007 214.257 301.011 214.549C301.011 214.589 301.016 214.627 301.017 214.666C301.016 214.706 301.011 214.745 301.011 214.785C301.007 215.077 300.995 215.369 300.967 215.66C300.959 215.74 300.942 215.819 300.933 215.899C300.902 216.15 300.87 216.4 300.821 216.649C300.809 216.708 300.791 216.766 300.778 216.826C300.72 217.092 300.657 217.358 300.577 217.62C300.568 217.65 300.556 217.679 300.547 217.709C300.457 217.996 300.357 218.28 300.242 218.56L300.227 218.591C300.105 218.885 299.968 219.174 299.817 219.458L299.802 219.483C299.651 219.764 299.488 220.041 299.308 220.31C299.279 220.354 299.244 220.394 299.214 220.437C299.057 220.666 298.894 220.893 298.715 221.111C298.501 221.374 298.274 221.625 298.034 221.865C290.397 229.502 286.107 239.86 286.106 250.66C286.106 261.46 290.396 271.819 298.033 279.456C299.942 281.365 301.015 283.954 301.015 286.654C301.015 289.354 299.943 291.944 298.034 293.853C296.124 295.762 293.535 296.835 290.835 296.835C288.135 296.835 285.546 295.762 283.637 293.853C273.431 283.643 267.168 270.15 265.959 255.765C264.75 241.379 268.672 227.03 277.031 215.259L265.64 203.868L265.636 203.863L211.649 149.876C208.785 147.012 204.9 145.403 200.85 145.403C196.8 145.403 192.916 147.011 190.052 149.875C187.188 152.739 185.579 156.624 185.579 160.674C185.579 164.724 187.187 168.608 190.051 171.472L236.843 218.266C238.752 220.175 239.825 222.765 239.825 225.465C239.825 228.165 238.752 230.754 236.843 232.663C234.934 234.573 232.344 235.645 229.644 235.645C226.944 235.645 224.354 234.573 222.445 232.663L175.652 185.87L175.624 185.841L161.256 171.472C158.391 168.612 154.508 167.007 150.46 167.008C146.412 167.01 142.531 168.618 139.668 171.481C136.806 174.343 135.197 178.225 135.195 182.273C135.193 186.321 136.799 190.204 139.658 193.068L168.449 221.859L168.454 221.864L208.048 261.459C209.074 262.474 209.871 263.697 210.385 265.045C210.9 266.394 211.121 267.837 211.033 269.277C210.944 270.718 210.549 272.123 209.874 273.399C209.198 274.674 208.258 275.79 207.116 276.673C207.022 276.747 206.925 276.814 206.829 276.884C206.586 277.061 206.337 277.226 206.083 277.379C205.981 277.44 205.882 277.502 205.778 277.559C205.461 277.737 205.134 277.897 204.799 278.039C204.769 278.051 204.741 278.067 204.711 278.08C204.344 278.228 203.969 278.355 203.587 278.459C203.556 278.468 203.526 278.482 203.495 278.491C203.43 278.508 203.363 278.514 203.298 278.53C202.998 278.604 202.696 278.664 202.393 278.711C202.284 278.727 202.176 278.745 202.067 278.758C201.7 278.803 201.331 278.828 200.961 278.834C200.936 278.834 200.91 278.837 200.884 278.837C200.487 278.837 200.09 278.813 199.695 278.767C199.593 278.755 199.494 278.737 199.393 278.723C199.09 278.68 198.79 278.622 198.493 278.552C198.386 278.527 198.279 278.503 198.173 278.474C197.796 278.374 197.426 278.252 197.063 278.109L197.037 278.1C196.662 277.946 196.296 277.77 195.942 277.572C195.849 277.52 195.758 277.463 195.666 277.409C195.395 277.248 195.131 277.074 194.873 276.886C194.783 276.821 194.693 276.758 194.605 276.689C194.27 276.432 193.951 276.154 193.65 275.856L154.056 236.262C151.192 233.402 147.308 231.796 143.26 231.798C139.212 231.8 135.33 233.409 132.468 236.271C129.606 239.134 127.997 243.016 127.996 247.064C127.994 251.112 129.6 254.995 132.46 257.859L208.048 333.447C225.233 350.623 248.536 360.271 272.834 360.268C297.131 360.266 320.432 350.612 337.613 333.432C354.794 316.251 364.447 292.95 364.45 268.653C364.453 244.355 354.805 221.052 337.628 203.867Z" fill="#FFA217"/>
</svg>
