<svg width="500" height="500" viewBox="0 0 500 500" fill="none" xmlns="http://www.w3.org/2000/svg">
<rect width="500" height="500" fill="#FFA217"/>
<path fill-rule="evenodd" clip-rule="evenodd" d="M419.025 148.536C411.277 148.536 404.996 142.273 404.996 134.549C404.996 112.07 387.666 94.9193 367.586 94.9193C359.838 94.9193 353.557 88.6571 353.557 80.9324C353.557 73.2077 359.838 66.9456 367.586 66.9456C404.324 66.9456 433.054 97.805 433.054 134.549C433.054 142.273 426.773 148.536 419.025 148.536Z" fill="#291A11"/>
<path fill-rule="evenodd" clip-rule="evenodd" d="M81.291 347.28C89.2138 347.28 95.6365 353.703 95.6365 361.626C95.6365 384.074 113.834 402.271 136.282 402.271C144.205 402.271 150.628 408.694 150.628 416.617C150.628 424.54 144.205 430.962 136.282 430.962C97.9886 430.962 66.9456 399.919 66.9456 361.626C66.9456 353.703 73.3682 347.28 81.291 347.28Z" fill="#291A11"/>
<path d="M434.402 274.699C434.393 304.751 425.475 334.127 408.775 359.112C392.075 384.097 368.343 403.57 340.578 415.071C312.813 426.571 282.262 429.582 252.787 423.724C223.311 417.865 196.233 403.4 174.977 382.156L72.4043 279.583C66.634 273.816 62.417 266.683 60.1462 258.847C57.8755 251.012 57.6248 242.729 59.4176 234.77C61.2103 226.812 64.9882 219.436 70.3993 213.331C75.8103 207.226 82.6786 202.589 90.3642 199.854L82.1741 191.663C74.0326 183.515 69.0667 172.728 68.1702 161.244C67.2738 149.761 70.5057 138.334 77.2841 129.021C84.0626 119.708 93.9426 113.12 105.146 110.443C116.349 107.767 128.14 109.176 138.396 114.419C140.776 106.385 145.203 99.1068 151.244 93.2994C157.284 87.4921 164.731 83.3547 172.852 81.293C180.974 79.2314 189.492 79.3163 197.571 81.5395C205.65 83.7627 213.013 88.0478 218.936 93.9745L261.292 136.331C264.038 128.65 268.681 121.787 274.79 116.382C280.899 110.977 288.276 107.204 296.235 105.414C304.193 103.625 312.475 103.877 320.31 106.147C328.145 108.417 335.279 112.631 341.048 118.398L389.89 167.242C404.047 181.32 415.27 198.066 422.91 216.511C430.551 234.957 434.457 254.734 434.402 274.699ZM370.354 186.779L321.51 137.936C319.587 136.007 317.302 134.476 314.787 133.431C312.272 132.386 309.575 131.847 306.851 131.845C304.127 131.843 301.43 132.378 298.913 133.419C296.396 134.461 294.109 135.988 292.183 137.914C290.257 139.84 288.729 142.127 287.688 144.644C286.646 147.161 286.111 149.858 286.113 152.582C286.115 155.306 286.654 158.002 287.699 160.518C288.743 163.033 290.274 165.318 292.203 167.241L316.625 191.664C316.951 191.99 317.26 192.332 317.552 192.689C317.764 192.948 317.954 193.22 318.145 193.49C318.214 193.588 318.291 193.679 318.357 193.778C318.58 194.113 318.782 194.458 318.973 194.807C318.996 194.85 319.024 194.891 319.048 194.934C319.24 195.295 319.41 195.663 319.568 196.035C319.585 196.076 319.607 196.114 319.624 196.154C319.771 196.511 319.896 196.874 320.012 197.24C320.032 197.304 320.059 197.365 320.079 197.429C320.181 197.767 320.26 198.109 320.336 198.453C320.358 198.551 320.388 198.647 320.407 198.746C320.471 199.07 320.513 199.397 320.553 199.724C320.568 199.845 320.594 199.964 320.606 200.085C320.644 200.481 320.66 200.878 320.665 201.275C320.665 201.328 320.672 201.38 320.672 201.433C320.672 201.487 320.665 201.541 320.664 201.595C320.66 201.991 320.644 202.387 320.605 202.782C320.594 202.891 320.571 202.998 320.559 203.106C320.517 203.446 320.473 203.787 320.407 204.123C320.39 204.205 320.366 204.283 320.348 204.363C320.27 204.725 320.185 205.085 320.076 205.441C320.064 205.482 320.047 205.522 320.035 205.562C319.913 205.952 319.778 206.337 319.621 206.716L319.601 206.759C319.435 207.158 319.249 207.551 319.045 207.936L319.025 207.97C318.82 208.352 318.598 208.726 318.354 209.091C318.315 209.151 318.267 209.206 318.226 209.265C318.013 209.575 317.792 209.883 317.549 210.179C317.259 210.535 316.95 210.876 316.626 211.201C306.262 221.565 300.44 235.621 300.439 250.277C300.439 264.933 306.261 278.989 316.624 289.353C319.215 291.943 320.67 295.457 320.67 299.121C320.671 302.785 319.215 306.299 316.625 308.889C314.034 311.48 310.52 312.936 306.856 312.936C303.192 312.936 299.679 311.481 297.088 308.89C283.238 295.035 274.74 276.725 273.1 257.204C271.459 237.682 276.782 218.21 288.124 202.238L272.667 186.779L272.661 186.773L199.4 113.513C195.514 109.626 190.243 107.443 184.747 107.443C179.251 107.443 173.98 109.626 170.093 113.512C166.207 117.399 164.023 122.67 164.023 128.166C164.023 133.662 166.207 138.933 170.093 142.819L233.589 206.318C236.18 208.909 237.635 212.423 237.635 216.087C237.635 219.751 236.18 223.265 233.589 225.855C230.998 228.446 227.484 229.902 223.82 229.902C220.156 229.902 216.642 228.446 214.051 225.855L150.554 162.357L150.515 162.317L131.018 142.819C127.13 138.938 121.861 136.759 116.368 136.761C110.875 136.764 105.607 138.947 101.723 142.831C97.8388 146.715 95.6555 151.982 95.653 157.475C95.6506 162.968 97.8291 168.238 101.71 172.125L140.778 211.193L140.785 211.201L194.514 264.931C195.906 266.308 196.988 267.968 197.686 269.798C198.385 271.627 198.684 273.585 198.564 275.54C198.445 277.495 197.908 279.402 196.992 281.133C196.075 282.864 194.799 284.379 193.249 285.576C193.122 285.676 192.991 285.767 192.861 285.862C192.531 286.103 192.193 286.327 191.848 286.535C191.71 286.617 191.575 286.701 191.435 286.779C191.003 287.02 190.56 287.237 190.105 287.43C190.065 287.447 190.026 287.468 189.986 287.485C189.488 287.686 188.979 287.858 188.461 288C188.419 288.012 188.378 288.031 188.336 288.043C188.248 288.066 188.157 288.074 188.069 288.096C187.662 288.196 187.252 288.278 186.84 288.342C186.692 288.364 186.546 288.388 186.398 288.405C185.9 288.467 185.399 288.501 184.898 288.508C184.863 288.509 184.828 288.513 184.794 288.513C184.254 288.513 183.715 288.481 183.179 288.417C183.041 288.402 182.906 288.378 182.769 288.358C182.359 288.299 181.952 288.222 181.548 288.126C181.403 288.091 181.258 288.059 181.114 288.02C180.603 287.884 180.1 287.719 179.608 287.525L179.573 287.513C179.064 287.304 178.567 287.065 178.087 286.796C177.96 286.726 177.837 286.649 177.712 286.574C177.345 286.356 176.986 286.12 176.636 285.865C176.514 285.777 176.392 285.691 176.273 285.598C175.818 285.249 175.385 284.871 174.977 284.468L121.248 230.739C117.36 226.858 112.091 224.679 106.598 224.681C101.105 224.683 95.837 226.867 91.9528 230.751C88.0686 234.635 85.8856 239.903 85.8836 245.396C85.8816 250.89 88.0608 256.159 91.9422 260.046L194.515 362.618C217.834 385.927 249.457 399.019 282.428 399.015C315.4 399.011 347.019 385.912 370.333 362.598C393.648 339.283 406.747 307.664 406.751 274.693C406.755 241.721 393.663 210.099 370.354 186.779Z" fill="#291A11"/>
</svg>
